<svg width="140" height="117" viewBox="0 0 140 117" fill="none" xmlns="http://www.w3.org/2000/svg">
<g opacity="0.67">
<path opacity="0.9" d="M3 83H87.9601L139.451 116.111H3V83Z" fill="url(#paint0_linear_91_367)"/>
</g>
<mask id="path-2-inside-1_91_367" fill="white">
<path fillRule="evenodd" clipRule="evenodd" d="M64.2629 0H6C2.68629 0 0 2.68629 0 6V109C0 112.314 2.68629 115 6 115H83C86.3137 115 89 112.314 89 109V24.7371L64.2629 0Z"/>
</mask>
<path fillRule="evenodd" clipRule="evenodd" d="M64.2629 0H6C2.68629 0 0 2.68629 0 6V109C0 112.314 2.68629 115 6 115H83C86.3137 115 89 112.314 89 109V24.7371L64.2629 0Z" fill="#F9F9F9"/>
<path d="M64.2629 0L65.6771 -1.41421L65.0913 -2H64.2629V0ZM89 24.7371H91V23.9087L90.4142 23.3229L89 24.7371ZM6 2H64.2629V-2H6V2ZM2 6C2 3.79086 3.79086 2 6 2V-2C1.58172 -2 -2 1.58172 -2 6H2ZM2 109V6H-2V109H2ZM6 113C3.79086 113 2 111.209 2 109H-2C-2 113.418 1.58172 117 6 117V113ZM83 113H6V117H83V113ZM87 109C87 111.209 85.2091 113 83 113V117C87.4183 117 91 113.418 91 109H87ZM87 24.7371V109H91V24.7371H87ZM90.4142 23.3229L65.6771 -1.41421L62.8486 1.41421L87.5858 26.1514L90.4142 23.3229Z" fill="#B9BAD6" mask="url(#path-2-inside-1_91_367)"/>
<mask id="path-4-inside-2_91_367" fill="white">
<path fillRule="evenodd" clipRule="evenodd" d="M63 0V20C63 23.3137 65.6863 26 69 26H89L63 0Z"/>
</mask>
<path fillRule="evenodd" clipRule="evenodd" d="M63 0V20C63 23.3137 65.6863 26 69 26H89L63 0Z" fill="#E8E9F2"/>
<path d="M63 0L64.4142 -1.41421L61 -4.82843V0H63ZM89 26V28H93.8284L90.4142 24.5858L89 26ZM65 20V0H61V20H65ZM69 24C66.7909 24 65 22.2091 65 20H61C61 24.4183 64.5817 28 69 28V24ZM89 24H69V28H89V24ZM90.4142 24.5858L64.4142 -1.41421L61.5858 1.41421L87.5858 27.4142L90.4142 24.5858Z" fill="#B9BAD6" mask="url(#path-4-inside-2_91_367)"/>
<defs>
<linearGradient id="paint0_linear_91_367" x1="71.2255" y1="83" x2="94.2377" y2="65.0993" gradientUnits="userSpaceOnUse">
<stop stop-color="#D9DDE6"/>
<stop offset="1" stop-color="#D9DDE6" stopOpacity="0"/>
</linearGradient>
</defs>
</svg>
